<svg height="512pt" viewBox="-43 0 512 512" width="512pt" xmlns="http://www.w3.org/2000/svg">
	<defs>
		<style>
			g:not(.others) { display: none; }
			g:target { display: initial; }
		</style>
	</defs>
	<g id="light">
		<path fill="#FFFFFF" d="m406.25 376.085938-55.167969-55.148438-100.585937-100.585938c16.789062-22.953124 26.835937-51.136718 26.835937-81.683593 0-76.460938-62.207031-138.667969-138.664062-138.667969-76.460938 0-138.667969 62.207031-138.667969 138.667969 0 76.457031 62.207031 138.664062 138.667969 138.664062 30.546875 0 58.707031-10.046875 81.640625-26.835937l85.503906 85.503906-54.25 54.25c-8.339844 8.34375-8.339844 21.824219 0 30.164062 4.179688 4.160157 9.644531 6.253907 15.105469 6.253907 5.460937 0 10.921875-2.09375 15.082031-6.253907l54.25-54.25 40.085938 40.085938c4.03125 4.011719 6.25 9.367188 6.25 15.082031 0 5.71875-2.21875 11.050781-6.25 15.082031l-39.167969 39.171876c-8.34375 8.339843-8.34375 21.820312 0 30.164062 4.160156 4.160156 9.621093 6.25 15.082031 6.25s10.921875-2.089844 15.082031-6.25l39.167969-39.148438c12.074219-12.09375 18.753906-28.160156 18.753906-45.269531s-6.679687-33.171875-18.753906-45.246093zm0 0" />
	</g>
	<g id="dark">
		<path fill="#444444" d="m406.25 376.085938-55.167969-55.148438-100.585937-100.585938c16.789062-22.953124 26.835937-51.136718 26.835937-81.683593 0-76.460938-62.207031-138.667969-138.664062-138.667969-76.460938 0-138.667969 62.207031-138.667969 138.667969 0 76.457031 62.207031 138.664062 138.667969 138.664062 30.546875 0 58.707031-10.046875 81.640625-26.835937l85.503906 85.503906-54.25 54.25c-8.339844 8.34375-8.339844 21.824219 0 30.164062 4.179688 4.160157 9.644531 6.253907 15.105469 6.253907 5.460937 0 10.921875-2.09375 15.082031-6.253907l54.25-54.25 40.085938 40.085938c4.03125 4.011719 6.25 9.367188 6.25 15.082031 0 5.71875-2.21875 11.050781-6.25 15.082031l-39.167969 39.171876c-8.34375 8.339843-8.34375 21.820312 0 30.164062 4.160156 4.160156 9.621093 6.25 15.082031 6.25s10.921875-2.089844 15.082031-6.25l39.167969-39.148438c12.074219-12.09375 18.753906-28.160156 18.753906-45.269531s-6.679687-33.171875-18.753906-45.246093zm0 0" />
	</g>
</svg>
